STARTFONT 2.3
FONT -FontForge-Tangerine-Book-R-Normal--11-110-72-72-P-40-ISO10646-1
SIZE 11 72 72  4
FONTBOUNDINGBOX 19 13 -4 -4
COMMENT "Generated by fontforge, http://fontforge.sourceforge.net"
COMMENT "Copyright (c) 2010 by Toshi Omagari. All rights reserved."
STARTPROPERTIES 40
FOUNDRY "FontForge"
FAMILY_NAME "Tangerine"
WEIGHT_NAME "Book"
SLANT "R"
SETWIDTH_NAME "Normal"
ADD_STYLE_NAME ""
PIXEL_SIZE 11
POINT_SIZE 110
RESOLUTION_X 72
RESOLUTION_Y 72
SPACING "P"
AVERAGE_WIDTH 40
CHARSET_REGISTRY "ISO10646"
CHARSET_ENCODING "1"
FONTNAME_REGISTRY ""
CHARSET_COLLECTIONS "ISO10646-1"
BITS_PER_PIXEL 4
FONT_NAME "Tangerine-Regular"
FACE_NAME "Tangerine Regular"
COPYRIGHT "Copyright (c) 2010 by Toshi Omagari. All rights reserved."
FONT_VERSION "1.3"
FONT_ASCENT 8
FONT_DESCENT 3
UNDERLINE_POSITION -1
UNDERLINE_THICKNESS 1
X_HEIGHT 2
CAP_HEIGHT 6
RAW_ASCENT 750
RAW_DESCENT 250
NORM_SPACE 2
RELATIVE_WEIGHT 40
RELATIVE_SETWIDTH 50
SUPERSCRIPT_X 0
SUPERSCRIPT_Y 5
SUPERSCRIPT_SIZE 7
SUBSCRIPT_X 0
SUBSCRIPT_Y 1
SUBSCRIPT_SIZE 7
AVG_LOWERCASE_WIDTH 26
AVG_UPPERCASE_WIDTH 78
ENDPROPERTIES
CHARS 233
STARTCHAR space
ENCODING 32
SWIDTH 150 0
DWIDTH 2 0
BBX 1 1 0 0
BITMAP
00
ENDCHAR
STARTCHAR exclam
ENCODING 33
SWIDTH 189 0
DWIDTH 2 0
BBX 4 7 0 0
BITMAP
0012
0061
0060
0220
0300
0000
4200
ENDCHAR
STARTCHAR quotedbl
ENCODING 34
SWIDTH 214 0
DWIDTH 2 0
BBX 3 2 0 3
BITMAP
0330
2430
ENDCHAR
STARTCHAR numbersign
ENCODING 35
SWIDTH 289 0
DWIDTH 3 0
BBX 4 3 0 0
BITMAP
2EF4
7E40
4100
ENDCHAR
STARTCHAR dollar
ENCODING 36
SWIDTH 269 0
DWIDTH 3 0
BBX 3 5 0 -1
BITMAP
0020
0560
0920
5630
2400
ENDCHAR
STARTCHAR percent
ENCODING 37
SWIDTH 388 0
DWIDTH 4 0
BBX 4 5 0 -1
BITMAP
0104
0431
9957
1364
3000
ENDCHAR
STARTCHAR ampersand
ENCODING 38
SWIDTH 507 0
DWIDTH 6 0
BBX 6 6 0 0
BITMAP
01D200
043200
050000
484153
709300
554851
ENDCHAR
STARTCHAR quotesingle
ENCODING 39
SWIDTH 120 0
DWIDTH 1 0
BBX 2 2 0 2
BITMAP
05
10
ENDCHAR
STARTCHAR parenleft
ENCODING 40
SWIDTH 250 0
DWIDTH 3 0
BBX 3 8 1 -1
BITMAP
0220
0500
4200
6000
7000
6000
5000
3000
ENDCHAR
STARTCHAR parenright
ENCODING 41
SWIDTH 276 0
DWIDTH 3 0
BBX 3 8 0 -1
BITMAP
0030
0040
0060
0060
0070
0240
0500
2200
ENDCHAR
STARTCHAR asterisk
ENCODING 42
SWIDTH 188 0
DWIDTH 2 0
BBX 2 3 0 2
BITMAP
14
34
11
ENDCHAR
STARTCHAR plus
ENCODING 43
SWIDTH 301 0
DWIDTH 3 0
BBX 3 3 0 0
BITMAP
0320
5FE0
0400
ENDCHAR
STARTCHAR comma
ENCODING 44
SWIDTH 112 0
DWIDTH 1 0
BBX 1 1 0 0
BITMAP
40
ENDCHAR
STARTCHAR hyphen
ENCODING 45
SWIDTH 245 0
DWIDTH 3 0
BBX 1 1 2 2
BITMAP
00
ENDCHAR
STARTCHAR period
ENCODING 46
SWIDTH 112 0
DWIDTH 1 0
BBX 1 1 0 0
BITMAP
30
ENDCHAR
STARTCHAR slash
ENCODING 47
SWIDTH 210 0
DWIDTH 2 0
BBX 6 8 -1 -1
BITMAP
000031
000030
000400
001200
004000
021000
040000
110000
ENDCHAR
STARTCHAR zero
ENCODING 48
SWIDTH 349 0
DWIDTH 4 0
BBX 4 4 0 0
BITMAP
0010
0215
4005
3741
ENDCHAR
STARTCHAR one
ENCODING 49
SWIDTH 189 0
DWIDTH 2 0
BBX 3 4 0 0
BITMAP
3A10
0930
1800
6200
ENDCHAR
STARTCHAR two
ENCODING 50
SWIDTH 277 0
DWIDTH 3 0
BBX 3 3 0 0
BITMAP
0480
0140
4730
ENDCHAR
STARTCHAR three
ENCODING 51
SWIDTH 253 0
DWIDTH 3 0
BBX 4 5 -1 -2
BITMAP
0048
0126
0004
2176
6E80
ENDCHAR
STARTCHAR four
ENCODING 52
SWIDTH 363 0
DWIDTH 4 0
BBX 5 6 0 0
BITMAP
000040
001620
012600
143310
38EB00
006000
ENDCHAR
STARTCHAR five
ENCODING 53
SWIDTH 250 0
DWIDTH 3 0
BBX 5 6 -1 -2
BITMAP
000010
003400
01C000
006300
217100
8D5000
ENDCHAR
STARTCHAR six
ENCODING 54
SWIDTH 296 0
DWIDTH 3 0
BBX 5 6 0 0
BITMAP
004D80
038120
081000
368100
604100
463000
ENDCHAR
STARTCHAR seven
ENCODING 55
SWIDTH 326 0
DWIDTH 4 0
BBX 4 5 0 -2
BITMAP
0CFB
2200
0000
1300
6000
ENDCHAR
STARTCHAR eight
ENCODING 56
SWIDTH 305 0
DWIDTH 3 0
BBX 4 6 0 0
BITMAP
0021
0337
0364
1382
6014
5640
ENDCHAR
STARTCHAR nine
ENCODING 57
SWIDTH 304 0
DWIDTH 3 0
BBX 5 6 -1 -2
BITMAP
005500
004220
052930
05EC10
104600
4E7000
ENDCHAR
STARTCHAR colon
ENCODING 58
SWIDTH 156 0
DWIDTH 2 0
BBX 2 3 0 0
BITMAP
15
00
60
ENDCHAR
STARTCHAR semicolon
ENCODING 59
SWIDTH 156 0
DWIDTH 2 0
BBX 2 4 0 -1
BITMAP
15
00
40
30
ENDCHAR
STARTCHAR less
ENCODING 60
SWIDTH 301 0
DWIDTH 3 0
BBX 4 4 0 0
BITMAP
0011
0650
3500
0320
ENDCHAR
STARTCHAR equal
ENCODING 61
SWIDTH 301 0
DWIDTH 3 0
BBX 4 3 0 0
BITMAP
3FF1
0000
7FC0
ENDCHAR
STARTCHAR greater
ENCODING 62
SWIDTH 301 0
DWIDTH 3 0
BBX 3 4 0 0
BITMAP
0100
0830
0070
1000
ENDCHAR
STARTCHAR question
ENCODING 63
SWIDTH 285 0
DWIDTH 3 0
BBX 5 7 0 0
BITMAP
000100
014820
000510
003200
060000
000000
420000
ENDCHAR
STARTCHAR at
ENCODING 64
SWIDTH 492 0
DWIDTH 5 0
BBX 5 6 0 -2
BITMAP
04CE50
194740
535660
549E50
173410
002100
ENDCHAR
STARTCHAR A
ENCODING 65
SWIDTH 996 0
DWIDTH 11 0
BBX 11 7 0 0
BITMAP
000001356770
000002000460
000001004410
000005731500
000001AFE800
200002300600
365431000930
ENDCHAR
STARTCHAR B
ENCODING 66
SWIDTH 638 0
DWIDTH 7 0
BBX 8 8 0 0
BITMAP
00000100
00126460
00104052
00051360
00050550
00130080
44300060
05532320
ENDCHAR
STARTCHAR C
ENCODING 67
SWIDTH 557 0
DWIDTH 6 0
BBX 7 7 0 0
BITMAP
00123470
02200010
06000000
26000000
36000000
09000300
03534500
ENDCHAR
STARTCHAR D
ENCODING 68
SWIDTH 799 0
DWIDTH 9 0
BBX 9 8 0 0
BITMAP
0000000100
0033577000
0110053600
0000240530
0000600070
0000500060
0214100040
5566553300
ENDCHAR
STARTCHAR E
ENCODING 69
SWIDTH 494 0
DWIDTH 5 0
BBX 6 7 0 0
BITMAP
001236
006400
004E10
063000
350000
440011
073350
ENDCHAR
STARTCHAR F
ENCODING 70
SWIDTH 626 0
DWIDTH 7 0
BBX 10 7 0 0
BITMAP
0002346EF2
0001008210
0000016000
0004FFE400
0100050000
4000230000
3743200000
ENDCHAR
STARTCHAR G
ENCODING 71
SWIDTH 571 0
DWIDTH 6 0
BBX 9 9 -1 -2
BITMAP
000004CE50
0000682160
0002700010
0008000000
0008002000
0006018000
2300016000
5200060000
1733400000
ENDCHAR
STARTCHAR H
ENCODING 72
SWIDTH 865 0
DWIDTH 10 0
BBX 13 8 0 0
BITMAP
00000000000330
00023470003220
00010610030000
00000800220000
02ADFA63600000
1A415136D10000
50013002500000
35220003710000
ENDCHAR
STARTCHAR I
ENCODING 73
SWIDTH 554 0
DWIDTH 6 0
BBX 8 7 0 0
BITMAP
00000257
00002260
00004060
00002330
22003500
6403A200
1CEA2000
ENDCHAR
STARTCHAR J
ENCODING 74
SWIDTH 634 0
DWIDTH 7 0
BBX 9 9 0 -2
BITMAP
0000002570
0000022500
0000030600
0000114200
0120035000
2100045000
5000290000
9116A10000
6ED7000000
ENDCHAR
STARTCHAR K
ENCODING 75
SWIDTH 936 0
DWIDTH 10 0
BBX 11 7 0 0
BITMAP
000245721470
000200522000
002003420000
001006600000
020005340000
500022070000
374310038400
ENDCHAR
STARTCHAR L
ENCODING 76
SWIDTH 657 0
DWIDTH 7 0
BBX 8 7 0 0
BITMAP
000003CB
00002916
00008100
00018000
15372000
9EFB2030
4325DE40
ENDCHAR
STARTCHAR M
ENCODING 77
SWIDTH 1219 0
DWIDTH 13 0
BBX 15 7 0 0
BITMAP
0000134667101710
0000200008017200
0000000035126000
0100000261233000
4100002263070000
6200032081070000
1965410060066100
ENDCHAR
STARTCHAR N
ENCODING 78
SWIDTH 990 0
DWIDTH 11 0
BBX 14 7 0 0
BITMAP
00025672000057
00000037000410
00000030600300
00000030523000
31000210062000
61001300062000
19763000032000
ENDCHAR
STARTCHAR O
ENCODING 79
SWIDTH 606 0
DWIDTH 7 0
BBX 8 7 0 0
BITMAP
001AED40
029313C0
06000062
15000051
35000060
1C313910
05DEA100
ENDCHAR
STARTCHAR P
ENCODING 80
SWIDTH 783 0
DWIDTH 9 0
BBX 10 8 0 0
BITMAP
0000000100
0000135560
0001106016
0001015007
0000071043
2100064420
4000310000
1753100000
ENDCHAR
STARTCHAR Q
ENCODING 81
SWIDTH 563 0
DWIDTH 6 0
BBX 9 9 0 -2
BITMAP
0029AA1000
0160039000
0600008000
0600004000
0700010000
0550530000
0127300000
14AE830000
00018DFB10
ENDCHAR
STARTCHAR R
ENCODING 82
SWIDTH 854 0
DWIDTH 9 0
BBX 10 8 0 0
BITMAP
0000000200
0000236450
0001124070
0000060050
0000065310
1100237000
4000405300
3643000851
ENDCHAR
STARTCHAR S
ENCODING 83
SWIDTH 480 0
DWIDTH 5 0
BBX 6 8 0 0
BITMAP
000030
000213
000800
000A30
0001A0
010070
500040
274310
ENDCHAR
STARTCHAR T
ENCODING 84
SWIDTH 577 0
DWIDTH 6 0
BBX 9 7 0 0
BITMAP
0005DEDA50
0024112100
0020002000
0010031000
0000040000
4000210000
3743100000
ENDCHAR
STARTCHAR U
ENCODING 85
SWIDTH 752 0
DWIDTH 8 0
BBX 10 7 0 0
BITMAP
0145710061
0201100160
2002000810
1021003900
0060018500
0082394300
006EA13810
ENDCHAR
STARTCHAR V
ENCODING 86
SWIDTH 661 0
DWIDTH 7 0
BBX 9 7 0 0
BITMAP
0245104D10
0200301630
1000400310
0000500200
0000604100
0000742000
0000420000
ENDCHAR
STARTCHAR W
ENCODING 87
SWIDTH 822 0
DWIDTH 9 0
BBX 11 7 0 0
BITMAP
025910020720
110150500320
100042600400
000041601300
000050603000
000320620000
000400600000
ENDCHAR
STARTCHAR X
ENCODING 88
SWIDTH 813 0
DWIDTH 9 0
BBX 10 7 0 0
BITMAP
0001C00474
0003632001
0000260000
0000080000
0000081000
210113B130
5741007E40
ENDCHAR
STARTCHAR Y
ENCODING 89
SWIDTH 662 0
DWIDTH 7 0
BBX 10 8 0 -1
BITMAP
0002820015
0000500070
0000500450
1310401900
5002439100
7002EA1000
8301420000
1CEB400000
ENDCHAR
STARTCHAR Z
ENCODING 90
SWIDTH 625 0
DWIDTH 7 0
BBX 8 8 0 0
BITMAP
00000001
0003EFE4
00050140
00101300
00001000
00000010
01000320
2DFFE600
ENDCHAR
STARTCHAR bracketleft
ENCODING 91
SWIDTH 318 0
DWIDTH 4 0
BBX 5 8 0 -1
BITMAP
005420
007000
007000
016000
042000
070000
070000
192000
ENDCHAR
STARTCHAR backslash
ENCODING 92
SWIDTH 212 0
DWIDTH 2 0
BBX 2 8 0 -1
BITMAP
30
30
30
12
03
03
04
01
ENDCHAR
STARTCHAR bracketright
ENCODING 93
SWIDTH 339 0
DWIDTH 4 0
BBX 4 8 0 -1
BITMAP
0029
0007
0016
0042
0060
0060
0160
2630
ENDCHAR
STARTCHAR asciicircum
ENCODING 94
SWIDTH 272 0
DWIDTH 3 0
BBX 3 2 0 2
BITMAP
0340
2250
ENDCHAR
STARTCHAR underscore
ENCODING 95
SWIDTH 356 0
DWIDTH 4 0
BBX 5 1 -1 -1
BITMAP
1B9730
ENDCHAR
STARTCHAR grave
ENCODING 96
SWIDTH 155 0
DWIDTH 2 0
BBX 2 3 0 3
BITMAP
10
81
13
ENDCHAR
STARTCHAR a
ENCODING 97
SWIDTH 294 0
DWIDTH 3 0
BBX 4 3 0 0
BITMAP
1BD1
7330
5170
ENDCHAR
STARTCHAR b
ENCODING 98
SWIDTH 247 0
DWIDTH 3 0
BBX 6 8 0 0
BITMAP
000135
001100
001000
020000
030000
287000
613000
630000
ENDCHAR
STARTCHAR c
ENCODING 99
SWIDTH 203 0
DWIDTH 2 0
BBX 3 3 0 0
BITMAP
1620
5000
7300
ENDCHAR
STARTCHAR d
ENCODING 100
SWIDTH 285 0
DWIDTH 3 0
BBX 7 8 0 0
BITMAP
00000460
00003000
00022000
00050000
00320000
15900000
61700000
73800000
ENDCHAR
STARTCHAR e
ENCODING 101
SWIDTH 206 0
DWIDTH 2 0
BBX 3 3 0 0
BITMAP
1820
5000
6300
ENDCHAR
STARTCHAR f
ENCODING 102
SWIDTH 156 0
DWIDTH 2 0
BBX 10 11 -4 -3
BITMAP
0000000256
0000002200
0000004000
0000032000
0000060000
00008E8000
0000150000
0000500000
0000500000
0003100000
2421000000
ENDCHAR
STARTCHAR g
ENCODING 103
SWIDTH 210 0
DWIDTH 2 0
BBX 5 6 -2 -3
BITMAP
001830
005500
007700
130600
380700
0AE800
ENDCHAR
STARTCHAR h
ENCODING 104
SWIDTH 292 0
DWIDTH 3 0
BBX 6 8 0 0
BITMAP
000137
000100
002000
011000
030000
06A000
445000
607000
ENDCHAR
STARTCHAR i
ENCODING 105
SWIDTH 149 0
DWIDTH 2 0
BBX 3 5 0 0
BITMAP
0210
0000
2400
5000
7100
ENDCHAR
STARTCHAR j
ENCODING 106
SWIDTH 136 0
DWIDTH 2 0
BBX 6 8 -4 -3
BITMAP
000003
000000
000013
000041
000030
000020
000200
242000
ENDCHAR
STARTCHAR k
ENCODING 107
SWIDTH 259 0
DWIDTH 3 0
BBX 6 8 0 0
BITMAP
000137
000100
002000
020000
030000
177000
540000
553000
ENDCHAR
STARTCHAR l
ENCODING 108
SWIDTH 134 0
DWIDTH 1 0
BBX 6 9 0 -1
BITMAP
000372
002300
005000
041000
060000
240000
710000
700000
120000
ENDCHAR
STARTCHAR m
ENCODING 109
SWIDTH 413 0
DWIDTH 5 0
BBX 5 4 0 -1
BITMAP
288740
448520
624600
000110
ENDCHAR
STARTCHAR n
ENCODING 110
SWIDTH 291 0
DWIDTH 3 0
BBX 3 3 0 0
BITMAP
4790
4450
6070
ENDCHAR
STARTCHAR o
ENCODING 111
SWIDTH 225 0
DWIDTH 2 0
BBX 3 3 0 0
BITMAP
1D40
6230
4100
ENDCHAR
STARTCHAR p
ENCODING 112
SWIDTH 261 0
DWIDTH 3 0
BBX 4 7 -1 -3
BITMAP
0011
0115
0128
08C2
0300
2200
5200
ENDCHAR
STARTCHAR q
ENCODING 113
SWIDTH 269 0
DWIDTH 3 0
BBX 3 6 0 -3
BITMAP
1580
6150
7610
0600
0600
1700
ENDCHAR
STARTCHAR r
ENCODING 114
SWIDTH 195 0
DWIDTH 2 0
BBX 3 3 0 0
BITMAP
3A80
3610
6000
ENDCHAR
STARTCHAR s
ENCODING 115
SWIDTH 188 0
DWIDTH 2 0
BBX 2 3 0 0
BITMAP
25
16
54
ENDCHAR
STARTCHAR t
ENCODING 116
SWIDTH 171 0
DWIDTH 2 0
BBX 3 5 0 0
BITMAP
0100
0500
3E30
6200
6200
ENDCHAR
STARTCHAR u
ENCODING 117
SWIDTH 299 0
DWIDTH 3 0
BBX 3 3 0 0
BITMAP
2450
5270
7570
ENDCHAR
STARTCHAR v
ENCODING 118
SWIDTH 271 0
DWIDTH 3 0
BBX 3 3 0 0
BITMAP
2550
2470
6900
ENDCHAR
STARTCHAR w
ENCODING 119
SWIDTH 369 0
DWIDTH 4 0
BBX 4 3 0 0
BITMAP
5345
2843
3492
ENDCHAR
STARTCHAR x
ENCODING 120
SWIDTH 263 0
DWIDTH 3 0
BBX 3 3 0 0
BITMAP
17D0
0A20
6530
ENDCHAR
STARTCHAR y
ENCODING 121
SWIDTH 280 0
DWIDTH 3 0
BBX 5 6 -2 -3
BITMAP
002350
005180
007540
000500
400400
633000
ENDCHAR
STARTCHAR z
ENCODING 122
SWIDTH 238 0
DWIDTH 3 0
BBX 3 3 0 0
BITMAP
1640
1300
7520
ENDCHAR
STARTCHAR braceleft
ENCODING 123
SWIDTH 291 0
DWIDTH 3 0
BBX 3 8 1 -1
BITMAP
0230
0600
0600
3300
7000
6000
6000
7000
ENDCHAR
STARTCHAR bar
ENCODING 124
SWIDTH 162 0
DWIDTH 2 0
BBX 2 10 0 -3
BITMAP
22
22
22
22
22
22
22
22
22
22
ENDCHAR
STARTCHAR braceright
ENCODING 125
SWIDTH 285 0
DWIDTH 3 0
BBX 4 8 0 -1
BITMAP
0052
0033
0060
0070
0050
0410
0600
2500
ENDCHAR
STARTCHAR asciitilde
ENCODING 126
SWIDTH 383 0
DWIDTH 4 0
BBX 4 2 0 1
BITMAP
0C52
12C6
ENDCHAR
STARTCHAR space.dup1
ENCODING 160
SWIDTH 150 0
DWIDTH 2 0
BBX 1 1 0 0
BITMAP
00
ENDCHAR
STARTCHAR exclamdown
ENCODING 161
SWIDTH 189 0
DWIDTH 2 0
BBX 3 7 -1 -4
BITMAP
0060
0000
0120
0400
1500
6100
3000
ENDCHAR
STARTCHAR cent
ENCODING 162
SWIDTH 194 0
DWIDTH 2 0
BBX 3 6 0 -2
BITMAP
1310
2A00
7600
A400
3000
1000
ENDCHAR
STARTCHAR sterling
ENCODING 163
SWIDTH 344 0
DWIDTH 4 0
BBX 4 3 0 0
BITMAP
0044
0620
4741
ENDCHAR
STARTCHAR currency
ENCODING 164
SWIDTH 344 0
DWIDTH 4 0
BBX 4 3 0 0
BITMAP
0465
2121
0310
ENDCHAR
STARTCHAR yen
ENCODING 165
SWIDTH 309 0
DWIDTH 3 0
BBX 3 3 0 0
BITMAP
5610
0400
8F40
ENDCHAR
STARTCHAR brokenbar
ENCODING 166
SWIDTH 162 0
DWIDTH 2 0
BBX 2 10 0 -3
BITMAP
22
22
22
11
00
00
11
22
22
22
ENDCHAR
STARTCHAR section
ENCODING 167
SWIDTH 395 0
DWIDTH 4 0
BBX 7 9 -1 -3
BITMAP
00014710
00160320
00550000
00561000
00364000
00066000
10065000
60062000
26420000
ENDCHAR
STARTCHAR dieresis
ENCODING 168
SWIDTH 174 0
DWIDTH 2 0
BBX 2 1 0 3
BITMAP
33
ENDCHAR
STARTCHAR copyright
ENCODING 169
SWIDTH 331 0
DWIDTH 4 0
BBX 4 3 0 1
BITMAP
1113
3422
1440
ENDCHAR
STARTCHAR ordfeminine
ENCODING 170
SWIDTH 226 0
DWIDTH 2 0
BBX 2 2 0 2
BITMAP
02
24
ENDCHAR
STARTCHAR guillemotleft
ENCODING 171
SWIDTH 289 0
DWIDTH 3 0
BBX 4 3 0 0
BITMAP
0462
6A20
28B0
ENDCHAR
STARTCHAR logicalnot
ENCODING 172
SWIDTH 265 0
DWIDTH 3 0
BBX 3 2 0 1
BITMAP
CD90
0050
ENDCHAR
STARTCHAR registered
ENCODING 174
SWIDTH 331 0
DWIDTH 4 0
BBX 4 3 0 1
BITMAP
0352
3433
2870
ENDCHAR
STARTCHAR degree
ENCODING 176
SWIDTH 104 0
DWIDTH 1 0
BBX 2 2 0 3
BITMAP
0A
15
ENDCHAR
STARTCHAR plusminus
ENCODING 177
SWIDTH 301 0
DWIDTH 3 0
BBX 3 3 0 0
BITMAP
0220
5FE0
3710
ENDCHAR
STARTCHAR twosuperior
ENCODING 178
SWIDTH 215 0
DWIDTH 2 0
BBX 1 1 1 2
BITMAP
50
ENDCHAR
STARTCHAR threesuperior
ENCODING 179
SWIDTH 190 0
DWIDTH 2 0
BBX 2 1 0 2
BITMAP
15
ENDCHAR
STARTCHAR acute
ENCODING 180
SWIDTH 157 0
DWIDTH 2 0
BBX 2 2 0 3
BITMAP
26
40
ENDCHAR
STARTCHAR mu
ENCODING 181
SWIDTH 324 0
DWIDTH 4 0
BBX 5 5 -1 -2
BITMAP
004430
035A00
07A710
050000
120000
ENDCHAR
STARTCHAR paragraph
ENCODING 182
SWIDTH 392 0
DWIDTH 4 0
BBX 6 7 -1 -3
BITMAP
000020
001843
00BB80
00D770
003720
202800
747100
ENDCHAR
STARTCHAR periodcentered
ENCODING 183
SWIDTH 112 0
DWIDTH 1 0
BBX 1 1 0 1
BITMAP
60
ENDCHAR
STARTCHAR cedilla
ENCODING 184
SWIDTH 115 0
DWIDTH 1 0
BBX 1 1 0 -1
BITMAP
30
ENDCHAR
STARTCHAR onesuperior
ENCODING 185
SWIDTH 174 0
DWIDTH 2 0
BBX 2 2 0 2
BITMAP
43
23
ENDCHAR
STARTCHAR ordmasculine
ENCODING 186
SWIDTH 178 0
DWIDTH 2 0
BBX 2 2 0 2
BITMAP
01
23
ENDCHAR
STARTCHAR guillemotright
ENCODING 187
SWIDTH 276 0
DWIDTH 3 0
BBX 4 3 -1 0
BITMAP
0563
0166
1340
ENDCHAR
STARTCHAR onequarter
ENCODING 188
SWIDTH 435 0
DWIDTH 5 0
BBX 5 5 0 -1
BITMAP
000210
062200
053430
152C10
200000
ENDCHAR
STARTCHAR onehalf
ENCODING 189
SWIDTH 434 0
DWIDTH 5 0
BBX 5 5 0 -1
BITMAP
000210
062420
053140
152610
200000
ENDCHAR
STARTCHAR threequarters
ENCODING 190
SWIDTH 476 0
DWIDTH 5 0
BBX 5 5 0 -1
BITMAP
000030
041410
045250
151520
020000
ENDCHAR
STARTCHAR questiondown
ENCODING 191
SWIDTH 285 0
DWIDTH 3 0
BBX 4 7 -1 -4
BITMAP
0006
0000
0025
0320
5100
6540
0200
ENDCHAR
STARTCHAR Agrave
ENCODING 192
SWIDTH 996 0
DWIDTH 11 0
BBX 11 9 0 0
BITMAP
000000000240
000000000000
000001356770
000002000460
000001004410
000005731500
000001AFE800
200002300600
365431000930
ENDCHAR
STARTCHAR Aacute
ENCODING 193
SWIDTH 996 0
DWIDTH 11 0
BBX 11 9 0 0
BITMAP
000000000010
000000000000
000001356770
000002000460
000001004410
000005731500
000001AFE800
200002300600
365431000930
ENDCHAR
STARTCHAR Acircumflex
ENCODING 194
SWIDTH 996 0
DWIDTH 11 0
BBX 12 9 0 0
BITMAP
000000000194
000000000000
000001356770
000002000460
000001004410
000005731500
000001AFE800
200002300600
365431000930
ENDCHAR
STARTCHAR Atilde
ENCODING 195
SWIDTH 996 0
DWIDTH 11 0
BBX 12 8 0 0
BITMAP
0000000002A2
000001356770
000002000460
000001004410
000005731500
000001AFE800
200002300600
365431000930
ENDCHAR
STARTCHAR Adieresis
ENCODING 196
SWIDTH 996 0
DWIDTH 11 0
BBX 12 9 0 0
BITMAP
000000000032
000000000000
000001356770
000002000460
000001004410
000005731500
000001AFE800
200002300600
365431000930
ENDCHAR
STARTCHAR Aring
ENCODING 197
SWIDTH 996 0
DWIDTH 11 0
BBX 12 9 0 0
BITMAP
000000000030
000000000052
000001356770
000002000460
000001004410
000005731500
000001AFE800
200002300600
365431000930
ENDCHAR
STARTCHAR AE
ENCODING 198
SWIDTH 1271 0
DWIDTH 14 0
BBX 15 7 0 0
BITMAP
0000013567732540
0000020004770010
0000010043365000
0000038416300000
000001BFFC000000
2000023007000300
3754310005634300
ENDCHAR
STARTCHAR Ccedilla
ENCODING 199
SWIDTH 557 0
DWIDTH 6 0
BBX 7 8 0 -1
BITMAP
00123470
02100010
05000000
25000000
38000200
0C513600
01892000
00020000
ENDCHAR
STARTCHAR Egrave
ENCODING 200
SWIDTH 463 0
DWIDTH 5 0
BBX 6 9 0 0
BITMAP
000150
000000
002135
009100
008A00
172000
700000
800020
363340
ENDCHAR
STARTCHAR Eacute
ENCODING 201
SWIDTH 463 0
DWIDTH 5 0
BBX 6 9 0 0
BITMAP
000051
000000
002135
009100
008A00
172000
700000
800020
363340
ENDCHAR
STARTCHAR Ecircumflex
ENCODING 202
SWIDTH 463 0
DWIDTH 5 0
BBX 6 9 0 0
BITMAP
000391
000000
002135
009100
008A00
172000
700000
800020
363340
ENDCHAR
STARTCHAR Edieresis
ENCODING 203
SWIDTH 463 0
DWIDTH 5 0
BBX 6 9 0 0
BITMAP
000141
000000
002135
009100
008A00
172000
700000
800020
363340
ENDCHAR
STARTCHAR Igrave
ENCODING 204
SWIDTH 514 0
DWIDTH 6 0
BBX 8 9 0 0
BITMAP
00000100
00000000
00000374
00004150
00031510
00020600
30011400
81168000
5ED70000
ENDCHAR
STARTCHAR Iacute
ENCODING 205
SWIDTH 514 0
DWIDTH 6 0
BBX 8 9 0 0
BITMAP
00000150
00000000
00000374
00004150
00031510
00020600
30011400
81168000
5ED70000
ENDCHAR
STARTCHAR Icircumflex
ENCODING 206
SWIDTH 514 0
DWIDTH 6 0
BBX 8 9 0 0
BITMAP
000002A2
00000000
00000374
00004150
00031510
00020600
30011400
81168000
5ED70000
ENDCHAR
STARTCHAR Idieresis
ENCODING 207
SWIDTH 514 0
DWIDTH 6 0
BBX 8 9 0 0
BITMAP
00000041
00000000
00000374
00004150
00031510
00020600
30011400
81168000
5ED70000
ENDCHAR
STARTCHAR Eth
ENCODING 208
SWIDTH 800 0
DWIDTH 9 0
BBX 9 8 0 0
BITMAP
0000000100
0023440000
0100030000
0000510130
000DFF3060
0000600060
0214200040
5565220000
ENDCHAR
STARTCHAR Ntilde
ENCODING 209
SWIDTH 796 0
DWIDTH 9 0
BBX 14 8 -2 0
BITMAP
000000001A3000
00025671000067
00000046000400
00000031501200
00000030613000
40000300162000
61002200072000
29763000050000
ENDCHAR
STARTCHAR Ograve
ENCODING 210
SWIDTH 608 0
DWIDTH 7 0
BBX 8 9 0 0
BITMAP
00006200
00000000
001AED40
029313C0
06000052
15000051
35000060
1C313920
04DEA100
ENDCHAR
STARTCHAR Oacute
ENCODING 211
SWIDTH 608 0
DWIDTH 7 0
BBX 8 9 0 0
BITMAP
00003300
00000000
001AED40
029313C0
06000052
15000051
35000060
1C313920
04DEA100
ENDCHAR
STARTCHAR Ocircumflex
ENCODING 212
SWIDTH 608 0
DWIDTH 7 0
BBX 8 9 0 0
BITMAP
00003500
00000000
001AED40
029313C0
06000052
15000051
35000060
1C313920
04DEA100
ENDCHAR
STARTCHAR Otilde
ENCODING 213
SWIDTH 608 0
DWIDTH 7 0
BBX 8 8 0 0
BITMAP
00003100
001AED40
029313C0
06000052
15000051
35000060
1C313920
04DEA100
ENDCHAR
STARTCHAR Odieresis
ENCODING 214
SWIDTH 608 0
DWIDTH 7 0
BBX 8 9 0 0
BITMAP
00003200
00000000
001AED40
029313C0
06000052
15000051
35000060
1C313920
04DEA100
ENDCHAR
STARTCHAR multiply
ENCODING 215
SWIDTH 301 0
DWIDTH 3 0
BBX 3 3 0 0
BITMAP
0560
0710
2530
ENDCHAR
STARTCHAR Oslash
ENCODING 216
SWIDTH 605 0
DWIDTH 7 0
BBX 8 9 0 -1
BITMAP
00000010
002AE850
02B34661
0911A052
170A2070
34650180
14513A10
04DEA100
01000000
ENDCHAR
STARTCHAR Ugrave
ENCODING 217
SWIDTH 717 0
DWIDTH 8 0
BBX 9 8 0 0
BITMAP
0000015000
0246600070
2102000620
2011001900
1040007500
0060049000
00A1566000
00BD607500
ENDCHAR
STARTCHAR Uacute
ENCODING 218
SWIDTH 717 0
DWIDTH 8 0
BBX 9 8 0 0
BITMAP
0000003300
0246600070
2102000620
2011001900
1040007500
0060049000
00A1566000
00BD607500
ENDCHAR
STARTCHAR Ucircumflex
ENCODING 219
SWIDTH 718 0
DWIDTH 8 0
BBX 9 8 0 0
BITMAP
0000016300
0246600070
2102000620
2011001900
1040007500
0060049000
00A1566000
00BD607500
ENDCHAR
STARTCHAR Udieresis
ENCODING 220
SWIDTH 718 0
DWIDTH 8 0
BBX 9 9 0 0
BITMAP
0000003200
0000000000
0246600070
2102000620
2011001900
1040007500
0060049000
00A1566000
00BD607500
ENDCHAR
STARTCHAR Yacute
ENCODING 221
SWIDTH 662 0
DWIDTH 7 0
BBX 10 9 0 -1
BITMAP
0000001400
0002820015
0000500070
0000500450
1310401900
5002439100
7002EA1000
8301420000
1CEB400000
ENDCHAR
STARTCHAR Thorn
ENCODING 222
SWIDTH 745 0
DWIDTH 8 0
BBX 9 8 0 0
BITMAP
0000000300
0000004100
000013DC20
0000228680
0000073060
21000A0210
4000326200
1754100000
ENDCHAR
STARTCHAR germandbls
ENCODING 223
SWIDTH 304 0
DWIDTH 3 0
BBX 10 12 -4 -3
BITMAP
0000000151
0000001933
000000502A
00000114D3
0000016C20
000003B000
0000212000
0000303000
000026C000
0001100000
0001000000
3520000000
ENDCHAR
STARTCHAR agrave
ENCODING 224
SWIDTH 294 0
DWIDTH 3 0
BBX 4 6 0 0
BITMAP
0010
0170
0050
1BD1
7330
5170
ENDCHAR
STARTCHAR aacute
ENCODING 225
SWIDTH 294 0
DWIDTH 3 0
BBX 4 5 0 0
BITMAP
0061
0040
1BD1
7330
5170
ENDCHAR
STARTCHAR acircumflex
ENCODING 226
SWIDTH 294 0
DWIDTH 3 0
BBX 4 5 0 0
BITMAP
0030
0130
1BD1
7330
5170
ENDCHAR
STARTCHAR atilde
ENCODING 227
SWIDTH 294 0
DWIDTH 3 0
BBX 4 5 0 0
BITMAP
0552
03C0
1BD1
7330
5170
ENDCHAR
STARTCHAR adieresis
ENCODING 228
SWIDTH 284 0
DWIDTH 3 0
BBX 4 4 0 0
BITMAP
0240
1BD1
7330
5170
ENDCHAR
STARTCHAR aring
ENCODING 229
SWIDTH 294 0
DWIDTH 3 0
BBX 4 5 0 0
BITMAP
0080
0150
1BD1
7330
5170
ENDCHAR
STARTCHAR ae
ENCODING 230
SWIDTH 363 0
DWIDTH 4 0
BBX 4 3 0 0
BITMAP
15A9
5160
6382
ENDCHAR
STARTCHAR ccedilla
ENCODING 231
SWIDTH 203 0
DWIDTH 2 0
BBX 3 5 0 -2
BITMAP
2620
5000
6400
3100
1000
ENDCHAR
STARTCHAR egrave
ENCODING 232
SWIDTH 206 0
DWIDTH 2 0
BBX 3 6 0 0
BITMAP
0100
0810
0140
1820
5000
6300
ENDCHAR
STARTCHAR eacute
ENCODING 233
SWIDTH 206 0
DWIDTH 2 0
BBX 3 5 0 0
BITMAP
0070
0310
1820
5000
6300
ENDCHAR
STARTCHAR ecircumflex
ENCODING 234
SWIDTH 206 0
DWIDTH 2 0
BBX 3 5 0 0
BITMAP
0200
0220
1820
5000
6300
ENDCHAR
STARTCHAR edieresis
ENCODING 235
SWIDTH 206 0
DWIDTH 2 0
BBX 3 4 0 0
BITMAP
0330
1820
5000
6300
ENDCHAR
STARTCHAR igrave
ENCODING 236
SWIDTH 149 0
DWIDTH 2 0
BBX 2 6 0 0
BITMAP
01
18
05
24
50
71
ENDCHAR
STARTCHAR iacute
ENCODING 237
SWIDTH 149 0
DWIDTH 2 0
BBX 3 5 0 0
BITMAP
0350
0400
2400
5000
7100
ENDCHAR
STARTCHAR icircumflex
ENCODING 238
SWIDTH 149 0
DWIDTH 2 0
BBX 3 5 0 0
BITMAP
0300
1210
2400
5000
7100
ENDCHAR
STARTCHAR idieresis
ENCODING 239
SWIDTH 149 0
DWIDTH 2 0
BBX 3 4 0 0
BITMAP
0330
2400
5000
7100
ENDCHAR
STARTCHAR eth
ENCODING 240
SWIDTH 234 0
DWIDTH 3 0
BBX 3 8 0 0
BITMAP
2000
6000
1700
2510
0040
1550
5030
6400
ENDCHAR
STARTCHAR ntilde
ENCODING 241
SWIDTH 291 0
DWIDTH 3 0
BBX 4 5 0 0
BITMAP
0552
03C0
4790
4450
6070
ENDCHAR
STARTCHAR ograve
ENCODING 242
SWIDTH 225 0
DWIDTH 2 0
BBX 3 6 0 0
BITMAP
0100
0630
0040
1D40
6230
4100
ENDCHAR
STARTCHAR oacute
ENCODING 243
SWIDTH 225 0
DWIDTH 2 0
BBX 3 5 0 0
BITMAP
0080
0220
1D40
6230
4100
ENDCHAR
STARTCHAR ocircumflex
ENCODING 244
SWIDTH 225 0
DWIDTH 2 0
BBX 3 5 0 0
BITMAP
0120
0130
1D40
6230
4100
ENDCHAR
STARTCHAR otilde
ENCODING 245
SWIDTH 225 0
DWIDTH 2 0
BBX 3 5 0 0
BITMAP
0840
0690
1D40
6230
4100
ENDCHAR
STARTCHAR odieresis
ENCODING 246
SWIDTH 225 0
DWIDTH 2 0
BBX 3 4 0 0
BITMAP
0330
1D40
6230
4100
ENDCHAR
STARTCHAR divide
ENCODING 247
SWIDTH 301 0
DWIDTH 3 0
BBX 3 4 0 0
BITMAP
0110
0000
1430
0200
ENDCHAR
STARTCHAR oslash
ENCODING 248
SWIDTH 225 0
DWIDTH 2 0
BBX 3 5 0 -1
BITMAP
0010
1950
5430
8300
1000
ENDCHAR
STARTCHAR ugrave
ENCODING 249
SWIDTH 299 0
DWIDTH 3 0
BBX 3 6 0 0
BITMAP
0010
0180
0050
2450
5270
7570
ENDCHAR
STARTCHAR uacute
ENCODING 250
SWIDTH 299 0
DWIDTH 3 0
BBX 4 5 0 0
BITMAP
0052
0040
2450
5270
7570
ENDCHAR
STARTCHAR ucircumflex
ENCODING 251
SWIDTH 299 0
DWIDTH 3 0
BBX 4 5 0 0
BITMAP
0030
0131
2450
5270
7570
ENDCHAR
STARTCHAR udieresis
ENCODING 252
SWIDTH 299 0
DWIDTH 3 0
BBX 3 4 0 0
BITMAP
0240
2450
5270
7570
ENDCHAR
STARTCHAR yacute
ENCODING 253
SWIDTH 280 0
DWIDTH 3 0
BBX 6 8 -2 -3
BITMAP
000043
000040
002350
005180
007540
000500
400400
633000
ENDCHAR
STARTCHAR thorn
ENCODING 254
SWIDTH 261 0
DWIDTH 3 0
BBX 4 9 -1 -3
BITMAP
0013
0022
0040
0015
0128
0AC2
0400
3200
5200
ENDCHAR
STARTCHAR ydieresis
ENCODING 255
SWIDTH 280 0
DWIDTH 3 0
BBX 5 7 -2 -3
BITMAP
000240
002350
005180
007540
000500
400400
633000
ENDCHAR
STARTCHAR dotlessi
ENCODING 305
SWIDTH 149 0
DWIDTH 2 0
BBX 2 3 0 0
BITMAP
24
50
71
ENDCHAR
STARTCHAR Lslash
ENCODING 321
SWIDTH 657 0
DWIDTH 7 0
BBX 8 7 0 0
BITMAP
000003CB
00002815
00028300
0002D300
15376000
63AC1030
7E75DE40
ENDCHAR
STARTCHAR lslash
ENCODING 322
SWIDTH 134 0
DWIDTH 1 0
BBX 6 9 0 -1
BITMAP
000372
002300
004000
063000
060000
240000
700000
700000
120000
ENDCHAR
STARTCHAR OE
ENCODING 338
SWIDTH 827 0
DWIDTH 9 0
BBX 10 7 0 0
BITMAP
002AED5135
029313B200
0600008A00
1500162000
3500800000
1C31700020
05DEA63340
ENDCHAR
STARTCHAR oe
ENCODING 339
SWIDTH 345 0
DWIDTH 4 0
BBX 4 3 0 0
BITMAP
1887
4150
6482
ENDCHAR
STARTCHAR Scaron
ENCODING 352
SWIDTH 480 0
DWIDTH 5 0
BBX 6 9 0 0
BITMAP
000052
000030
000213
000800
000A30
0001A0
010070
500040
274310
ENDCHAR
STARTCHAR scaron
ENCODING 353
SWIDTH 188 0
DWIDTH 2 0
BBX 3 5 0 0
BITMAP
0230
0410
2500
1600
5400
ENDCHAR
STARTCHAR Ydieresis
ENCODING 376
SWIDTH 662 0
DWIDTH 7 0
BBX 10 10 0 -1
BITMAP
0000003200
0000000000
0002820015
0000500070
0000500450
1310401900
5002439100
7002EA1000
8301420000
1CEB400000
ENDCHAR
STARTCHAR Zcaron
ENCODING 381
SWIDTH 625 0
DWIDTH 7 0
BBX 8 9 0 0
BITMAP
00000520
00000001
0003EFE4
00050140
00101300
00001000
00000010
01000320
2DFFE600
ENDCHAR
STARTCHAR zcaron
ENCODING 382
SWIDTH 248 0
DWIDTH 3 0
BBX 3 5 0 0
BITMAP
0040
0040
2640
1300
7520
ENDCHAR
STARTCHAR florin
ENCODING 402
SWIDTH 214 0
DWIDTH 2 0
BBX 4 4 -1 -1
BITMAP
00A8
08D3
0410
3300
ENDCHAR
STARTCHAR circumflex
ENCODING 710
SWIDTH 196 0
DWIDTH 2 0
BBX 2 2 0 3
BITMAP
12
13
ENDCHAR
STARTCHAR caron
ENCODING 711
SWIDTH 196 0
DWIDTH 2 0
BBX 1 2 1 3
BITMAP
40
40
ENDCHAR
STARTCHAR breve
ENCODING 728
SWIDTH 198 0
DWIDTH 2 0
BBX 2 2 0 3
BITMAP
15
48
ENDCHAR
STARTCHAR dotaccent
ENCODING 729
SWIDTH 89 0
DWIDTH 1 0
BBX 1 1 0 3
BITMAP
50
ENDCHAR
STARTCHAR ring
ENCODING 730
SWIDTH 117 0
DWIDTH 1 0
BBX 1 2 0 3
BITMAP
80
60
ENDCHAR
STARTCHAR ogonek
ENCODING 731
SWIDTH 124 0
DWIDTH 1 0
BBX 1 2 0 -2
BITMAP
30
20
ENDCHAR
STARTCHAR tilde
ENCODING 732
SWIDTH 222 0
DWIDTH 2 0
BBX 3 2 0 3
BITMAP
6420
4B00
ENDCHAR
STARTCHAR hungarumlaut
ENCODING 733
SWIDTH 253 0
DWIDTH 3 0
BBX 3 2 0 3
BITMAP
3860
5610
ENDCHAR
STARTCHAR mu.dup2
ENCODING 956
SWIDTH 324 0
DWIDTH 4 0
BBX 5 5 -1 -2
BITMAP
004430
035A00
07A710
050000
120000
ENDCHAR
STARTCHAR endash
ENCODING 8211
SWIDTH 500 0
DWIDTH 6 0
BBX 6 1 0 1
BITMAP
BFFFF3
ENDCHAR
STARTCHAR emdash
ENCODING 8212
SWIDTH 1000 0
DWIDTH 11 0
BBX 11 1 0 1
BITMAP
BFFFFFFFFFB0
ENDCHAR
STARTCHAR quoteleft
ENCODING 8216
SWIDTH 87 0
DWIDTH 1 0
BBX 2 2 0 3
BITMAP
01
41
ENDCHAR
STARTCHAR quoteright
ENCODING 8217
SWIDTH 87 0
DWIDTH 1 0
BBX 2 2 0 3
BITMAP
03
13
ENDCHAR
STARTCHAR quotesinglbase
ENCODING 8218
SWIDTH 112 0
DWIDTH 1 0
BBX 1 1 0 0
BITMAP
10
ENDCHAR
STARTCHAR quotedblleft
ENCODING 8220
SWIDTH 167 0
DWIDTH 2 0
BBX 3 2 0 3
BITMAP
1410
5600
ENDCHAR
STARTCHAR quotedblright
ENCODING 8221
SWIDTH 167 0
DWIDTH 2 0
BBX 3 2 0 3
BITMAP
0650
1410
ENDCHAR
STARTCHAR quotedblbase
ENCODING 8222
SWIDTH 192 0
DWIDTH 2 0
BBX 2 1 0 0
BITMAP
44
ENDCHAR
STARTCHAR dagger
ENCODING 8224
SWIDTH 185 0
DWIDTH 2 0
BBX 3 7 0 -1
BITMAP
0310
0400
9E70
0400
2100
3000
2000
ENDCHAR
STARTCHAR daggerdbl
ENCODING 8225
SWIDTH 185 0
DWIDTH 2 0
BBX 4 7 -1 -1
BITMAP
0031
0040
05E8
0120
3EC0
0300
0200
ENDCHAR
STARTCHAR bullet
ENCODING 8226
SWIDTH 207 0
DWIDTH 2 0
BBX 2 1 0 1
BITMAP
3A
ENDCHAR
STARTCHAR ellipsis
ENCODING 8230
SWIDTH 376 0
DWIDTH 4 0
BBX 1 1 3 0
BITMAP
00
ENDCHAR
STARTCHAR perthousand
ENCODING 8240
SWIDTH 571 0
DWIDTH 6 0
BBX 6 5 0 -1
BITMAP
010400
043100
995737
136464
300000
ENDCHAR
STARTCHAR guilsinglleft
ENCODING 8249
SWIDTH 189 0
DWIDTH 2 0
BBX 3 3 0 0
BITMAP
0410
6000
2500
ENDCHAR
STARTCHAR guilsinglright
ENCODING 8250
SWIDTH 176 0
DWIDTH 2 0
BBX 3 3 -1 0
BITMAP
0520
0150
1300
ENDCHAR
STARTCHAR fraction
ENCODING 8260
SWIDTH 220 0
DWIDTH 2 0
BBX 5 5 -1 -1
BITMAP
000120
000400
004000
040000
110000
ENDCHAR
STARTCHAR Euro
ENCODING 8364
SWIDTH 360 0
DWIDTH 4 0
BBX 3 4 0 0
BITMAP
08E0
9F60
6100
5220
ENDCHAR
STARTCHAR trademark
ENCODING 8482
SWIDTH 389 0
DWIDTH 4 0
BBX 4 2 0 1
BITMAP
1545
1232
ENDCHAR
STARTCHAR minus
ENCODING 8722
SWIDTH 301 0
DWIDTH 3 0
BBX 3 1 0 1
BITMAP
5FE0
ENDCHAR
STARTCHAR fi
ENCODING 64257
SWIDTH 297 0
DWIDTH 3 0
BBX 10 11 -4 -3
BITMAP
0000000256
0000002200
0000004300
0000032300
0000050000
00007FD100
0000252000
0000507000
0000500000
0003100000
2421000000
ENDCHAR
STARTCHAR fl
ENCODING 64258
SWIDTH 290 0
DWIDTH 3 0
BBX 11 11 -4 -3
BITMAP
000000020670
000000106100
000000332000
000004150000
000006330000
00006FD00000
000025400000
000050810000
000050000000
000300000000
242100000000
ENDCHAR
STARTCHAR .notdef
ENCODING -1
SWIDTH 150 0
DWIDTH 2 0
BBX 1 1 0 0
BITMAP
00
ENDCHAR
STARTCHAR .null
ENCODING -1
SWIDTH 0 0
DWIDTH 0 0
BBX 1 1 0 0
BITMAP
00
ENDCHAR
STARTCHAR nonmarkingreturn
ENCODING -1
SWIDTH 150 0
DWIDTH 2 0
BBX 1 1 0 0
BITMAP
00
ENDCHAR
ENDFONT
